<svg height="67" viewBox="0 0 57 67" width="57" xmlns="http://www.w3.org/2000/svg"><g fill="none" fill-rule="evenodd" transform="translate(1 1)"><path d="m33.6631712 52.8493648-19.1384434 11.75757v-11.75757h-14.5247278v-52.8493648h54.7368421v52.8493648z" fill="#fff" stroke="#000"/><path d="m36.6532995 22.4443702c.8375407.8697539 1.2563049 2.0777273 1.2563049 3.6239565v7.7794265h-1.6428603v-7.3928712c0-1.2079915-.3261528-2.1461842-.9784682-2.8146061-.6523155-.668422-1.5502424-1.002628-2.6938077-1.002628-1.3529505.0322131-2.4119405.4992962-3.1770018 1.4012632s-1.1475862 2.0938341-1.1475862 3.575637v6.2332051h-1.6428602v-7.3928712c0-1.2079915-.3261529-2.1461842-.9784683-2.8146061-.6523154-.668422-1.5502423-1.002628-2.6938076-1.002628-1.3529505.0322131-2.4159671.4992962-3.1890817 1.4012632-.7731145.901967-1.159666 2.0938341-1.159666 3.575637v6.2332051h-1.6187006v-12.6596879h1.6187006v2.9716443c.4187704-.9986063 1.04289-1.7475498 1.8723775-2.246853.8294875-.4993031 1.8401586-.7570041 3.0320435-.7731107 1.2079915 0 2.2106095.2979668 3.0078839.8939093s1.3247561 1.4334707 1.582461 2.5126098c.3865572-1.1274588 1.0106768-1.9730402 1.8723774-2.5367695.8617007-.5637294 1.9206907-.853643 3.1770019-.8697496 1.4979094 0 2.6656171.4348704 3.5031579 1.3046243z" fill="#000"/></g></svg>