<svg height="60" viewBox="0 0 150 60" width="150" xmlns="http://www.w3.org/2000/svg"><g fill="none" fill-rule="evenodd"><path d="m0 0h150v60h-150z" fill="#000"/><g fill="#fff" transform="translate(15 14)"><path d="m39.6316071 2.44767857c.3760734.13821498.6669633.33589157.8726786.59303572.2057153.25714414.3085714.55928397.3085714.90642857 0 .35357319-.1044632.66214154-.3133928.92571428-.2089296.26357275-.4933911.44357095-.8533929.54.4307165.08357185.7698202.27964132 1.0173215.58821429.2475012.30857297.37125.68142638.37125 1.11857143 0 .37928761-.1060704.71196285-.3182143.99803571s-.5142838.5046421-.9064286.65571429c-.3921448.15107218-.8517831.22660714-1.3789286.22660714h-3.3364285v-6.75964286h3.2110714c.5078597 0 .9498195.06910645 1.3258928.20732143zm-.84375 2.30464286c.1414293-.11892917.2121429-.28446323.2121429-.49660714 0-.20571532-.0707136-.36482087-.2121429-.47732143-.1414292-.11250057-.3342845-.16553575-.5785714-.15910715h-1.35v1.31142858h1.35c.2442869 0 .4371422-.0594637.5785714-.17839286zm.1542858 2.68553571c.1800009-.12857207.27-.30857027.27-.54 0-.21214392-.0899991-.38089223-.27-.50625s-.4242842-.18482146-.7328572-.17839285h-1.35v1.4175h1.35c.308573 0 .5528563-.06428508.7328572-.19285715zm7.0875-3.22553571c.3985734.33107308.6010714.79553272.6075 1.39339286v3.39428571h-1.6875v-.58821429c-.3471446.44357365-.871068.66535715-1.5717858.66535715-.5528599 0-.9883912-.14946279-1.3066071-.44839286s-.4773214-.69267613-.4773214-1.18125c0-.49500248.1719625-.8807129.5158928-1.15714286.3439303-.27642995.8373182-.41785711 1.4801786-.42428571h1.3596429v-.05785714c0-.25071554-.0851778-.44357076-.2555358-.57857143-.170358-.13500068-.4162484-.2025-.7376785-.2025-.2185726 0-.4644629.03535679-.7376786.10607143-.2732157.07071463-.5480343.17357075-.8244643.30857142l-.4725-1.15714285c.4242878-.19285811.8308909-.33589239 1.2198214-.42910715.3889306-.09321475.7923194-.13982142 1.2101786-.13982142.7200036 0 1.2792837.16553405 1.6778572.49660714zm-1.4464286 3.51c.1928581-.12535777.3149997-.28767758.3664286-.48696429v-.45321428h-1.0221429c-.4821453 0-.7232143.1799982-.7232143.54 0 .1800009.062678.32303518.1880357.42910714.1253578.10607196.2973204.15910714.5158929.15910714.2571441 0 .4821419-.06267794.675-.18803571zm3.2110714-3.93910714h1.7067857v5.21678571h-1.7067857zm1.4898214-2.14553572c.170358.170358.2555358.39053437.2555358.66053572 0 .26357274-.0851778.48214198-.2555358.65571428s-.3873201.26035714-.6508928.26035714c-.2635728 0-.4805349-.08678484-.6508929-.26035714s-.2555357-.39214154-.2555357-.65571428c0-.27000135.0851777-.49017772.2555357-.66053572.170358-.17035799.3873201-.25553571.6508929-.25553571.2635727 0 .4805348.08517772.6508928.25553571zm1.0173215 2.14553572h1.9671428l.8389286 1.46571428.9064286-1.46571428h1.8803571l-1.6489286 2.54571428 1.7646429 2.67107143h-1.9767857l-.9257143-1.59107143-1.0317857 1.59107143h-1.89l1.7742857-2.67107143zm10.2117857.42910714c.3985734.33107308.6010714.79553272.6075 1.39339286v3.39428571h-1.6875v-.58821429c-.3471446.44357365-.8710679.66535715-1.5717857.66535715-.5528599 0-.9883913-.14946279-1.3066072-.44839286-.3182158-.29893007-.4773214-.69267613-.4773214-1.18125 0-.49500248.1719626-.8807129.5158929-1.15714286.3439302-.27642995.8373182-.41785711 1.4801785-.42428571h1.3596429v-.05785714c0-.25071554-.0851777-.44357076-.2555357-.57857143-.170358-.13500068-.4162484-.2025-.7376786-.2025-.2185725 0-.4644629.03535679-.7376786.10607143-.2732156.07071463-.5480343.17357075-.8244643.30857142l-.4725-1.15714285c.4242879-.19285811.830891-.33589239 1.2198215-.42910715.3889305-.09321475.7923193-.13982142 1.2101785-.13982142.7200036 0 1.2792838.16553405 1.6778572.49660714zm-1.4464286 3.51c.1928581-.12535777.3149998-.28767758.3664286-.48696429v-.45321428h-1.0221429c-.4821452 0-.7232143.1799982-.7232143.54 0 .1800009.062678.32303518.1880358.42910714.1253577.10607196.2973203.15910714.5158928.15910714.2571442 0 .4821419-.06267794.675-.18803571zm5.6266072-3.76553572c.2860728-.16071509.6123196-.24107142.97875-.24107142v1.57178571c-.0578575-.0064286-.1446423-.00964286-.2603572-.00964286-.405002 0-.7328559.09482048-.9835714.28446429-.2507156.1896438-.395357.44839122-.4339286.77625v2.66142857h-1.7164286v-5.21678571h1.7164286v.86785714c.1800009-.30214437.4130343-.53357063.6991072-.69428572zm8.6882142.29892858c.3439303.3600018.5158929.84535408.5158929 1.45607142v3.28821429h-1.7067857v-2.79642857c0-.29571577-.0803564-.52874915-.2410714-.69910714-.1607151-.170358-.3760701-.25553572-.6460715-.25553572-.2828585.0064286-.5158919.09964196-.6991071.27964286s-.2908927.41785566-.3230357.71357143v2.75785714h-1.7164286v-5.21678571h1.7164286v.84857142c.1864295-.30214436.4258914-.53035637.7183928-.68464285.2925015-.15428649.628391-.23142857 1.0076786-.23142857.5721457 0 1.0301769.1799982 1.3741071.54zm5.7133929-.04339286c.3985734.33107308.6010714.79553272.6075 1.39339286v3.39428571h-1.6875v-.58821429c-.3471446.44357365-.8710679.66535715-1.5717857.66535715-.5528599 0-.9883913-.14946279-1.3066072-.44839286-.3182158-.29893007-.4773214-.69267613-.4773214-1.18125 0-.49500248.1719626-.8807129.5158929-1.15714286.3439303-.27642995.8373182-.41785711 1.4801785-.42428571h1.3596429v-.05785714c0-.25071554-.0851777-.44357076-.2555357-.57857143-.170358-.13500068-.4162484-.2025-.7376786-.2025-.2185725 0-.4644629.03535679-.7376786.10607143-.2732156.07071463-.5480343.17357075-.8244642.30857142l-.4725-1.15714285c.4242878-.19285811.8308909-.33589239 1.2198214-.42910715.3889305-.09321475.7923193-.13982142 1.2101786-.13982142.7200036 0 1.2792837.16553405 1.6778571.49660714zm-1.4464286 3.51c.1928581-.12535777.3149998-.28767758.3664286-.48696429v-.45321428h-1.0221429c-.4821452 0-.7232142.1799982-.7232142.54 0 .1800009.0626779.32303518.1880357.42910714.1253577.10607196.2973203.15910714.5158928.15910714.2571442 0 .4821419-.06267794.675-.18803571z"/><g fill-rule="nonzero"><g transform="translate(0 .428571)"><path d="m19.4228571 14.7685714c-.0310714-3.4532143 2.8275-5.13321426 2.9582143-5.21142854-1.6189285-2.36035715-4.1282143-2.68285715-5.01-2.70857143-2.1075-.22178572-4.1517857 1.26107143-5.2253571 1.26107143-1.095 0-2.7482143-1.23964286-4.53000001-1.20321429-2.29285715.03535714-4.43785715 1.36285714-5.61428572 3.42428573-2.42785714 4.2032143-.61714286 10.38 1.70892857 13.7775 1.16357143 1.6639286 2.52321429 3.5217857 4.30285715 3.4564286 1.74107142-.0717858 2.39142861-1.11 4.49250001-1.11 2.0817857 0 2.6925 1.11 4.5075 1.0682142 1.8685714-.03 3.045-1.6714285 4.1678571-3.3503571 1.3446429-1.9071429 1.8846429-3.7853571 1.9060715-3.8817857-.0439286-.015-3.6289286-1.3832143-3.6642858-5.5221429z"/><path d="m15.9942857 4.61357143c.9364286-1.17107143 1.5771429-2.76428572 1.3992857-4.38107143-1.3553571.06-3.0503571.9375-4.0264285 2.08285714-.8635715 1.00928572-1.635 2.66357143-1.4357143 4.21928572 1.5225.11357143 3.0857143-.76821429 4.0628571-1.92107143z"/></g><g transform="translate(32.142857 13.285714)"><path d="m12.5539286 14.4685714h-2.4332143l-1.33285716-4.1882143h-4.63285714l-1.26964286 4.1882143h-2.36892857l4.59-14.2585714h2.835zm-4.16678574-5.94535711-1.20535715-3.72321429c-.1275-.38035714-.36642857-1.27607143-.71892857-2.68607143h-.04285714c-.14035714.60642857-.36642857 1.50214286-.67714286 2.68607143l-1.18392857 3.72321429z"/><path d="m24.3578571 9.20142857c0 1.74857143-.4725 3.13071433-1.4175 4.14535713-.8464285.9032143-1.8975 1.3542857-3.1521428 1.3542857-1.3542857 0-2.3271429-.4864285-2.9196429-1.4592857h-.0428571v5.4160714h-2.2842857v-11.08607139c0-1.09928571-.0289286-2.2275-.0846429-3.38464285h2.0089286l.1275 1.62964285h.0428571c.7617857-1.22785714 1.9178572-1.84071428 3.4692857-1.84071428 1.2128572 0 2.2253572.47892857 3.0353572 1.43785714.8121428.96 1.2171428 2.22214286 1.2171428 3.7875zm-2.3271428.08357143c0-1.00071429-.225-1.82571429-.6771429-2.475-.4939285-.67714286-1.1571428-1.01571429-1.9885714-1.01571429-.5635714 0-1.0757143.18857143-1.5332143.56035715-.4585714.375-.7585714.86464285-.8989286 1.47107143-.0707142.28285714-.1060714.51428571-.1060714.69642857v1.71428574c0 .7478571.2292857 1.3789285.6878572 1.8942857.4585714.5153571 1.0542857.7725 1.7871428.7725.8603572 0 1.53-.3321429 2.0089286-.9942857.48-.6632143.72-1.5375.72-2.6239286z"/><path d="m36.1832143 9.20142857c0 1.74857143-.4725 3.13071433-1.4185714 4.14535713-.8453572.9032143-1.8964286 1.3542857-3.1510715 1.3542857-1.3542857 0-2.3271428-.4864285-2.9185714-1.4592857h-.0417857v5.4160714h-2.2853572v-11.08607139c0-1.09928571-.0289285-2.2275-.0846428-3.38464285h2.0089286l.1275 1.62964285h.0428571c.7607143-1.22785714 1.9167857-1.84071428 3.4692857-1.84071428 1.2117857 0 2.2242857.47892857 3.0364286 1.43785714.81.96 1.215 2.22214286 1.215 3.7875zm-2.3260714.08357143c0-1.00071429-.2260715-1.82571429-.6782143-2.475-.4939286-.67714286-1.155-1.01571429-1.9875-1.01571429-.5646429 0-1.0757143.18857143-1.5342857.56035715-.4585715.375-.7575.86464285-.8978572 1.47107143-.0696428.28285714-.1060714.51428571-.1060714.69642857v1.71428574c0 .7478571.2292857 1.3789285.6857143 1.8942857.4585714.5142857 1.0542857.7725 1.7892857.7725.8603571 0 1.53-.3321429 2.0089286-.9942857.4789285-.6632143.72-1.5375.72-2.6239286z"/><path d="m49.4046429 10.47c0 1.2128571-.4210715 2.1996429-1.2664286 2.9614286-.9289286.8325-2.2221429 1.2482143-3.8839286 1.2482143-1.5342857 0-2.7642857-.2957143-3.6953571-.8882143l.5292857-1.9039286c1.0028571.6064286 2.1032143.9107143 3.3021428.9107143.8603572 0 1.53-.195 2.0110715-.5828572.4789285-.3878571.7178571-.9085714.7178571-1.5578571 0-.5785714-.1971428-1.06607143-.5925-1.46142857-.3932143-.39535714-1.05-.76285714-1.9671428-1.1025-2.4964286-.93107143-3.7435715-2.295-3.7435715-4.08857143 0-1.17214286.4371429-2.13321429 1.3125-2.88107143.8721429-.74892857 2.0357143-1.12285714 3.4907143-1.12285714 1.2975 0 2.3753572.22607143 3.2357143.67714286l-.5710714 1.86214285c-.8035715-.43714285-1.7121429-.65571428-2.7289286-.65571428-.8035714 0-1.4314286.19821428-1.8814286.5925-.3803571.3525-.5710714.78214285-.5710714 1.29107143 0 .56357142.2175 1.02964285.6546429 1.39607142.3803571.33857143 1.0714285.705 2.0742857 1.10035715 1.2267857.49392857 2.1278571 1.07142857 2.7075 1.73357143.5775.66.8657143 1.48607142.8657143 2.47178571z"/><path d="m56.9571429 5.90142857h-2.5178572v4.99178573c0 1.2696428.4435714 1.9039286 1.3328572 1.9039286.4082142 0 .7467857-.0353572 1.0146428-.1060715l.0632143 1.7346429c-.45.1682143-1.0425.2528571-1.7764286.2528571-.9021428 0-1.6071428-.2753571-2.1160714-.825-.5067857-.5507143-.7617857-1.4742857-.7617857-2.7717857v-5.18249999h-1.5v-1.71428571h1.5v-1.8825l2.2435714-.67714286v2.55964286h2.5178572z"/><path d="m68.3185714 9.24321429c0 1.58035711-.4521428 2.87785711-1.3542857 3.89250001-.9460714 1.0446428-2.2017857 1.5653571-3.7671428 1.5653571-1.5085715 0-2.7096429-.5003571-3.6053572-1.5010714s-1.3435714-2.2639286-1.3435714-3.78642857c0-1.59321429.4607143-2.89821429 1.3853571-3.91285714.9225-1.01571429 2.1675-1.52357143 3.7328572-1.52357143 1.5085714 0 2.7225.50035714 3.6385714 1.50214285.8753571.97178572 1.3135714 2.22642858 1.3135714 3.76392858zm-2.3710714.07392857c0-.94821429-.2025-1.76142857-.6128571-2.43964286-.4789286-.82071429-1.1635715-1.23-2.0507143-1.23-.9182143 0-1.6157143.41035714-2.0946429 1.23-.4103571.67928571-.6128571 1.50535714-.6128571 2.4825 0 .9482143.2025 1.7614286.6128571 2.4385714.4939286.8207143 1.1839286 1.23 2.0742857 1.23.8721429 0 1.5567857-.4178571 2.0507143-1.2514285.4221429-.6910715.6332143-1.5128572.6332143-2.46000004z"/><path d="m75.7425 6.19607143c-.2260714-.04178572-.4671429-.06321429-.72-.06321429-.8035714 0-1.425.30321429-1.8621429.91071429-.3803571.53571428-.5710714 1.21285714-.5710714 2.03035714v5.39464283h-2.2832143l.0214286-7.0435714c0-1.185-.0289286-2.26392857-.0857143-3.23678571h1.9896429l.0835714 1.96714285h.0632143c.2410714-.67607143.6214286-1.22035714 1.1421428-1.62857143.5089286-.3675 1.0585715-.55071428 1.6510715-.55071428.2110714 0 .4017857.015.5710714.04178571z"/><path d="m85.9596429 8.84142857c0 .40928572-.0267858.75428572-.0835715 1.03607143h-6.8528571c.0267857 1.0157143.3578571 1.7925.9942857 2.3282143.5775.4789286 1.3242857.7189286 2.2414286.7189286 1.0146428 0 1.9403571-.1617858 2.7728571-.4864286l.3578572 1.5857143c-.9728572.4242857-2.1214286.6353571-3.4467858.6353571-1.5942857 0-2.8457142-.4692857-3.7564285-1.4067857-.9085715-.9375-1.3639286-2.1964286-1.3639286-3.77571429 0-1.55035714.4232143-2.84142857 1.2707143-3.87107142.8871428-1.09928572 2.0860714-1.64892858 3.5946428-1.64892858 1.4817858 0 2.6035715.54964286 3.3653572 1.64892858.6021428.87321428.9064286 1.95321428.9064286 3.23571428zm-2.1792858-.5925c.015-.67714286-.1339285-1.26214286-.4435714-1.75607143-.3953571-.63535714-1.0028571-.9525-1.8203571-.9525-.7467857 0-1.3542857.30964286-1.8182143.93107143-.3803572.49392857-.6064286 1.08642857-.6760714 1.77642857h4.7582142z"/></g></g></g></g></svg>