<svg height="7246" viewBox="0 0 1922 7246" width="1922" xmlns="http://www.w3.org/2000/svg"><path d="m801.305802 0c-32.303838 105.660794 8.731814 206.288848 123.106955 301.884164 171.562713 143.392974 571.004153 320.368766 411.556153 618.151107-106.29867 198.521559-322.29296 290.865609-647.982884 277.032149-259.25325-16.94911-446.345945 76.06205-561.278084 279.03349-172.3982075 304.45715-343.202375 1342.46173 771.460544 920.48612 1114.662924-421.97561 1116.125044-181.89135 932.238744 58.87469-122.59086 160.5107-289.20655 301.68606-499.84706 423.5261-514.233744 345.2941-762.526593 663.74966-744.878552 955.36669 17.648042 291.61703 278.553964 532.0715 782.717762 721.36342 261.62783 115.60876 308.34603 316.90507 140.15462 603.88896-168.1914 286.98388-432.399 322.38494-792.622798 106.20317-235.199732-174.87199-385.948308-159.00052-452.245727 47.61438-99.446128 309.92236-136.372897 555.30689 168.528538 736.60443 55.704229 33.12231 155.141561 41.45727 276.443579 38.49623 542.654028-13.24643 1522.883798-252.55843 982.826038 489.93547-440.51962 605.64471-450.40991 798.55444-29.67089 578.7292" fill="none" stroke="#4b4b4b"/></svg>