<svg height="82" viewBox="0 0 347 82" width="347" xmlns="http://www.w3.org/2000/svg"><g fill="none" fill-rule="evenodd" transform="translate(1 1)"><path d="m41.2958218 65.4411047-23.4778163 14.5588953v-14.5588953h-17.8180055v-65.4411047h345v65.4411047z" stroke="#000"/><path d="m55.9032818 27.3693342c1.0275254 1.061814 1.5412804 2.5365336 1.5412804 4.424203v9.4972891h-2.0155205v-9.0253741c0-1.4747417-.4001361-2.6201073-1.2004203-3.436131-.8002842-.8160238-1.9018935-1.2240295-3.3048608-1.2240295-1.6598487.0393264-2.9590561.6095513-3.897661 1.7106918s-1.4079003 2.5561971-1.4079003 4.3652136v7.6096292h-2.0155206v-9.0253741c0-1.4747417-.4001361-2.6201073-1.2004203-3.436131-.8002842-.8160238-1.9018934-1.2240295-3.3048608-1.2240295-1.6598487.0393264-2.963996.6095513-3.912481 1.7106918-.9484849 1.1011405-1.4227203 2.5561971-1.4227203 4.3652136v7.6096292h-1.9858805v-15.4552158h1.9858805v3.6278465c.5137627-1.2191199 1.2794552-2.133446 2.2971006-2.7430059 1.0176453-.6095599 2.2575732-.9241668 3.7198209-.94383 1.4820078 0 2.7120558.3637642 3.6901809 1.0913034.9781251.7275393 1.6252588 1.7500115 1.9414205 3.0674474.4742425-1.3764256 1.239935-2.4087293 2.2971006-3.0969421 1.0571655-.6882128 2.3563729-1.0421455 3.8976609-1.0618087 1.8376897 0 3.2702757.5308991 4.2978011 1.5927131zm66.4973562-1.5337237v15.4552158h-2.01552v-3.6868358c-.513763 1.2191198-1.279455 2.1432774-2.297101 2.7725005-1.017645.6292231-2.247693.9536614-3.690181.9733247-1.837689 0-3.275215-.5358148-4.312621-1.6074605-1.037405-1.0716456-1.5561-2.5414495-1.5561-4.4094556v-9.4972891h2.01552v9.0253741c0 1.4550785.400137 2.5906126 1.200421 3.4066363s1.901893 1.2240295 3.304861 1.2240295c1.659848-.0196632 2.963996-.5849724 3.912481-1.6959445s1.42272-2.5709445 1.42272-4.3799609v-7.5801345zm58.138875 1.8729126c-.731124-.2064638-1.452357-.3096942-2.163721-.3096942-.988005 0-1.783337.1917135-2.38602.5751464-.602683.3834328-.90402.9585735-.90402 1.7254391 0 .5309071.163018.9634915.48906 1.2977663.326041.3342747.731118.60464 1.21524.8111038.484123.2064639 1.160896.4375033 2.030341.6931252 1.067045.3146115 1.936477.6243026 2.60832.9290826.671844.30478 1.244878.7471958 1.719121 1.3272609.474242.5800651.71136 1.3420035.71136 2.2858382 0 1.3960888-.533515 2.4628027-1.600561 3.2001735-1.067045.7373709-2.400832 1.1060508-4.001401 1.1060508-1.126325 0-2.213115-.1867979-3.2604-.5603991-1.047286-.3736012-1.926597-.9045003-2.637961-1.5927131l.80028-1.4157449c.671844.6095599 1.467176 1.0913016 2.386021 1.4452396s1.852495.5309044 2.80098.5309044c1.047286 0 1.901898-.2162922 2.563861-.6488831.661964-.4325909.99294-1.0618046.99294-1.88766 0-.5702334-.167958-1.037228-.50388-1.4009976s-.755817-.6488821-1.2597-.8553459-1.200416-.4473347-2.089621-.7226198c-1.047285-.3146116-1.896957-.619387-2.54904-.9143353-.652084-.2949483-1.205358-.722617-1.659841-1.2830189-.454482-.5604018-.68172-1.2928459-.68172-2.1973541 0-1.3567624.508815-2.3792346 1.526461-3.0674474 1.017645-.6882128 2.287212-1.0323141 3.80874-1.0323141.889205 0 1.748757.1179776 2.578681.3539363.829924.2359586 1.570917.560397 2.223001.9733246l-.770641 1.5042291c-.592803-.3736013-1.254756-.6636295-1.98588-.8700933zm65.133916.3539362c1.264647 1.5238998 1.847561 3.57376 1.748761 6.1496422h-12.952684c.138321 1.6517107.750875 2.9838741 1.837681 3.99653 1.086806 1.012656 2.430473 1.5189764 4.031041 1.5189764.988005 0 1.906836-.1769664 2.756521-.5309044.849684-.353938 1.580797-.8553426 2.19336-1.504229l1.12632 1.1207981c-.750883.8061921-1.654895 1.4304901-2.71206 1.8729126-1.057166.4424225-2.218054.6636305-3.482701.6636305-1.501768 0-2.835555-.3293541-4.001401-.988072-1.165846-.658718-2.079737-1.5779599-2.741701-2.7577532-.661963-1.1797934-.99294-2.526704-.99294-4.0407721 0-1.4944049.330977-2.8363998.99294-4.0260247.661964-1.189625 1.575855-2.1137826 2.741701-2.7725006 1.165846-.6587179 2.479873-.988072 3.942121-.988072 2.410733 0 4.248395.7619385 5.513041 2.2858382zm-.02964 4.6159185c-.0988-1.6123843-.637255-2.8953903-1.61538-3.8490566s-2.257573-1.4304923-3.838381-1.4304923c-1.561048 0-2.865196.4817417-3.912481 1.4452396-1.047286.9634979-1.64996 2.2415883-1.808041 3.8343093zm61.992076 8.6124485-.02964-2.5955324c-.612563.9045082-1.412836 1.5779635-2.400841 2.020386s-2.124194.6636304-3.408601.6636304c-1.047285 0-1.971056-.201545-2.77134-.604641-.800285-.4030961-1.417779-.9585738-1.852501-1.6664498s-.65208-1.5042246-.65208-2.3890696c0-1.3370992.518695-2.3890658 1.5561-3.1559315 1.037406-.7668657 2.465052-1.1502928 4.282981-1.1502928h5.216642v-1.1797875c0-1.2191198-.365557-2.1629403-1.096681-2.8314899-.731123-.6685495-1.798153-1.0028193-3.20112-1.0028193-1.659849 0-3.329553.6193822-5.009162 1.8581652l-.8892-1.3567555c1.047286-.7275393 2.045156-1.2633541 2.993641-1.6074605s2.035274-.516157 3.260401-.516157c1.87721 0 3.329555.4669946 4.357081 1.4009976 1.027525.9340031 1.55116 2.2268406 1.57092 3.8785513l.02964 10.2346563zm-1.971061-2.5217957c.958365-.6390548 1.605499-1.5386337 1.941421-2.6987638v-2.1236175h-5.009161c-1.363448 0-2.400838.2261237-3.112201.6783778-.711364.4522541-1.067041 1.1306251-1.067041 2.0351334 0 .9241715.340857 1.666447 1.022581 2.2268488.681723.5604019 1.585734.8405986 2.71206.8405986 1.383208 0 2.553976-.3195226 3.512341-.9585773z" fill="#000"/></g></svg>