<svg height="33" viewBox="0 0 39 33" width="39" xmlns="http://www.w3.org/2000/svg"><g fill="none" fill-rule="evenodd"><path d="m38.0526316 2.68421053c-1.6128253 1.13764616-3.3985552 2.00776294-5.2884211 2.5768421-2.0777102-2.38898898-5.4259032-3.22675484-8.3838628-2.09776264-2.9579596 1.12899221-4.8964736 3.98458516-4.8540319 7.15039421v1.6842105c-6.0115119.1558778-11.70185212-2.70826016-15.15789475-7.62947365 0 0-6.7368421 15.15789475 8.42105265 21.89473685-3.46858517 2.3544696-7.60057785 3.5350389-11.7894737 3.368421 15.1578947 8.4210527 33.6842105 0 33.6842105-19.368421-.0015509-.46913072-.0466568-.93710417-.1347368-1.39789474 1.7189105-1.69516955 2.9319198-3.8354311 3.5031579-6.18105263z" fill="#f66"/><path d="m37.0526316.68421053c-1.6128253 1.13764616-3.3985552 2.00776294-5.2884211 2.5768421-2.0777102-2.38898898-5.4259032-3.22675484-8.3838628-2.09776264-2.9579596 1.12899221-4.8964736 3.98458516-4.8540319 7.15039422v1.68421053c-6.0115119.15587776-11.70185212-2.7082602-15.15789475-7.62947369 0 0-6.7368421 15.15789475 8.42105265 21.89473685-3.46858517 2.3544696-7.60057785 3.5350389-11.7894737 3.368421 15.1578947 8.4210527 33.6842105 0 33.6842105-19.36842101-.0015509-.46913071-.0466568-.93710416-.1347368-1.39789473 1.7189105-1.69516955 2.9319198-3.8354311 3.5031579-6.18105263z" stroke="#000" stroke-linecap="round" stroke-linejoin="round"/></g></svg>