<svg height="62" viewBox="0 0 261 62" width="261" xmlns="http://www.w3.org/2000/svg"><g fill="none" fill-rule="evenodd" transform="translate(1 1)"><path d="m31.0017908 49.0808285-17.6253751 10.9191715v-10.9191715h-13.3764157v-49.0808285h259v49.0808285z" stroke="#000"/><path d="m41.967971 20.5270007c.7713886.7963605 1.1570772 1.9024002 1.1570772 3.3181522v7.1229668h-1.5131009v-6.7690306c0-1.1060562-.3003921-1.9650804-.9011851-2.5770982-.6007931-.6120178-1.4277983-.9180221-2.4810405-.9180221-1.2460893.0294948-2.2214363.4571635-2.9260701 1.2830188-.7046339.8258554-1.0569455 1.9171479-1.0569455 3.2739103v5.7072218h-1.5131009v-6.7690306c0-1.1060562-.300392-1.9650804-.9011851-2.5770982s-1.4277983-.9180221-2.4810404-.9180221c-1.2460894.0294948-2.2251449.4571635-2.9371959 1.2830188-.712051.8258554-1.0680712 1.9171479-1.0680712 3.2739103v5.7072218h-1.4908494v-11.5914118h1.4908494v2.7208848c.3856943-.9143398.9605185-1.6000845 1.72449-2.0572544.7639714-.4571699 1.6948158-.693125 2.7925612-.7078725 1.1125797 0 2.0360071.2728232 2.7703097.8184776.7343027.5456544 1.2201219 1.3125086 1.4574722 2.3005856.3560255-1.0323192.9308498-1.806547 1.72449-2.3227066s1.7689872-.7816091 2.9260701-.7963566c1.3795989 0 2.4550766.3981743 3.2264652 1.1945349zm49.921204-1.1502928v11.5914118h-1.5131009v-2.7651269c-.3856944.9143399-.9605186 1.6074581-1.72449 2.0793754-.7639715.4719174-1.6873988.7152461-2.7703098.7299935-1.3795989 0-2.458785-.401861-3.2375909-1.2055953-.7788058-.8037342-1.1682029-1.9060871-1.1682029-3.3070917v-7.1229668h1.5131009v6.7690306c0 1.0913088.3003921 1.9429594.9011851 2.5549772.6007931.6120178 1.4277983.9180221 2.4810405.9180221 1.2460893-.0147474 2.2251448-.4387293 2.9371958-1.2719584.7120511-.833229 1.0680713-1.9282083 1.0680713-3.2849707v-5.6851008zm43.646285 1.4046844c-.548872-.1548479-1.09032-.2322706-1.624358-.2322706-.74172 0-1.338795.1437851-1.791244.4313598-.452449.2875746-.678671.7189301-.678671 1.2940793 0 .3981803.122382.7226186.36715.9733247.244767.2507061.548868.45348.912311.6083279.363442.1548479.871513.3281274 1.524226.5198439.801058.2359586 1.453762.468227 1.958131.6968119.504369.228585.934561.5603969 1.290586.9954457.356026.4350488.534036 1.0065026.534036 1.7143787 0 1.0470666-.400523 1.8471019-1.20158 2.4001301-.801058.5530281-1.802365.829538-3.003951.829538-.84556 0-1.66144-.1400983-2.447663-.4202992-.786223-.280201-1.446344-.6783753-1.980382-1.1945348l.60079-1.0618088c.504369.45717 1.101445.8184763 1.791244 1.0839298.6898.2654535 1.390715.3981782 2.102766.3981782.786223 0 1.427801-.1622191 1.924753-.4866623s.745425-.7963534.745425-1.415745c0-.427675-.126091-.7779209-.378275-1.0507482-.252185-.2728272-.567411-.4866615-.945689-.6415094-.378277-.1548479-.901181-.335501-1.568729-.5419649-.786223-.2359586-1.424093-.4645402-1.913628-.6857514-.489535-.2212113-.904892-.5419628-1.246083-.9622642s-.511784-.9696344-.511784-1.6480156c0-1.0175718.38198-1.784426 1.145951-2.3005855.763972-.5161596 1.717068-.7742356 2.859316-.7742356.667548 0 1.312835.0884832 1.935879.2654522.623045.176969 1.179326.4202977 1.668861.7299935l-.578538 1.1281718c-.445032-.280201-.941977-.4977221-1.49085-.65257zm48.897636.2654522c.949402 1.1429248 1.38701 2.68032 1.312838 4.6122316h-9.723899c.103841 1.2387831.5637 2.2379056 1.379592 2.9973975.815892.759492 1.824616 1.1392323 3.026202 1.1392323.74172 0 1.431509-.1327247 2.069388-.3981782.637879-.2654536 1.186744-.641507 1.64661-1.1281718l.845556.8405986c-.563707.6046441-1.24237 1.0728675-2.03601 1.4046844-.793641.3318169-1.665148.4977228-2.61455.4977228-1.127414 0-2.128721-.2470155-3.00395-.741054-.87523-.4940384-1.56131-1.1834698-2.058262-2.0683149-.496953-.884845-.745425-1.8950279-.745425-3.030579 0-1.1208037.248472-2.1272998.745425-3.0195185.496952-.8922188 1.183032-1.585337 2.058262-2.0793755.875229-.4940384 1.861702-.741054 2.959447-.741054 1.809797 0 3.189375.5714539 4.138776 1.7143787zm-.022251 3.4619388c-.074172-1.2092882-.478404-2.1715427-1.212706-2.8867924-.734303-.7152497-1.694816-1.0728692-2.881567-1.0728692-1.171918 0-2.150973.3613063-2.937196 1.0839297s-1.238666 1.6811912-1.357341 2.8757319zm46.538978 6.4593364-.022251-1.9466493c-.459867.6783812-1.060651 1.1834726-1.802371 1.5152895-.741719.3318169-1.594684.4977229-2.55892.4977229-.786223 0-1.479721-.1511588-2.080514-.4534808-.600793-.3023221-1.064361-.7189304-1.390718-1.2498374-.326356-.530907-.489532-1.1281684-.489532-1.7918022 0-1.0028244.389397-1.7917993 1.168203-2.3669486.778805-.5751493 1.850575-.8627196 3.215339-.8627196h3.916261v-.8848406c0-.9143398-.274432-1.6222052-.823305-2.1236174-.548872-.5014122-1.349918-.7521145-2.40316-.7521145-1.246089 0-2.499577.4645366-3.760501 1.3936239l-.667544-1.0175667c.786223-.5456544 1.535349-.9475155 2.2474-1.2055953s1.52793-.3871178 2.447663-.3871178c1.409267 0 2.499579.3502459 3.270968 1.0507483.771389.7005023 1.164494 1.6701304 1.179329 2.9089134l.022251 7.6759922zm-1.479724-1.8913468c.719469-.479291 1.205288-1.1539752 1.457473-2.0240728v-1.5927131h-3.760501c-1.023574 0-1.802368.1695927-2.336406.5087833s-.801053.8479689-.801053 1.5263501c0 .6931286.255889 1.2498352.767676 1.6701366s1.19045.6304489 2.036011.6304489c1.038407 0 1.917332-.2396419 2.6368-.718933z" fill="#000"/></g></svg>