<svg height="34" viewBox="0 0 20 34" width="20" xmlns="http://www.w3.org/2000/svg"><g fill="none" fill-rule="evenodd" transform="translate(1 1)"><path d="m19.6 2h-4.8c-4.418278 0-8 3.581722-8 8v4.8h-4.8v6.4h4.8v12.8h6.4v-12.8h4.8l1.6-6.4h-6.4v-4.8c0-.8836556.7163444-1.6 1.6-1.6h4.8z" fill="#f66"/><path d="m17.6 0h-4.8c-4.418278 0-8 3.581722-8 8v4.8h-4.8v6.4h4.8v12.8h6.4v-12.8h4.8l1.6-6.4h-6.4v-4.8c0-.8836556.7163444-1.6 1.6-1.6h4.8z" stroke="#000" stroke-linecap="round" stroke-linejoin="round"/></g></svg>